<?xml version="1.0" encoding="UTF-8" standalone="no"?>
<svg
   xmlns:dc="http://purl.org/dc/elements/1.1/"
   xmlns:cc="http://creativecommons.org/ns#"
   xmlns:rdf="http://www.w3.org/1999/02/22-rdf-syntax-ns#"
   xmlns:svg="http://www.w3.org/2000/svg"
   xmlns="http://www.w3.org/2000/svg"
   xmlns:sodipodi="http://sodipodi.sourceforge.net/DTD/sodipodi-0.dtd"
   xmlns:inkscape="http://www.inkscape.org/namespaces/inkscape"
   sodipodi:docname="P.svg"
   inkscape:version="1.0 (6e3e5246a0, 2020-05-07)"
   id="svg8"
   version="1.1"
   viewBox="0 0 132.29167 132.29167"
   height="500"
   width="500">
  <defs
     id="defs2">
    <rect
       x="23.596208"
       y="38.490045"
       width="102.78285"
       height="71.535467"
       id="rect843" />
  </defs>
  <sodipodi:namedview
     id="base"
     pagecolor="#ffffff"
     bordercolor="#666666"
     borderopacity="1.0"
     inkscape:pageopacity="0.0"
     inkscape:pageshadow="2"
     inkscape:zoom="0.90094181"
     inkscape:cx="228.29554"
     inkscape:cy="241.65882"
     inkscape:document-units="px"
     inkscape:current-layer="layer1"
     inkscape:document-rotation="0"
     showgrid="false"
     inkscape:pagecheckerboard="true"
     borderlayer="false"
     units="px"
     inkscape:window-width="1366"
     inkscape:window-height="709"
     inkscape:window-x="0"
     inkscape:window-y="27"
     inkscape:window-maximized="1" />
  <metadata
     id="metadata5">
    <rdf:RDF>
      <cc:Work
         rdf:about="">
        <dc:format>image/svg+xml</dc:format>
        <dc:type
           rdf:resource="http://purl.org/dc/dcmitype/StillImage" />
        <dc:title></dc:title>
      </cc:Work>
    </rdf:RDF>
  </metadata>
  <g
     inkscape:label="Layer 1"
     inkscape:groupmode="layer"
     id="layer1">
    <rect
       style="fill:#0f0f0f;stroke-width:0.264583;fill-opacity:1"
       id="rect835"
       width="132.29167"
       height="132.29167"
       x="0"
       y="3.469447e-18"
       ry="0" />
    <text
       xml:space="preserve"
       id="text841"
       style="font-size:352.778px;line-height:1.25;font-family:'Proxima Nova';-inkscape-font-specification:'Proxima Nova';letter-spacing:0px;word-spacing:0px;white-space:pre;shape-inside:url(#rect843);fill:#ffffff;fill-opacity:1;"><tspan
         style="visibility:hidden"
         x="23.595703"
         y="441.7167"><tspan
           style="font-style:normal;font-variant:normal;font-weight:normal;font-stretch:normal;font-size:352.778px;font-family:'Cloister Black';-inkscape-font-specification:'Cloister Black, ';fill:#ffffff;fill-opacity:1">P</tspan></tspan></text>
    <g
       style="font-size:10.5833px;line-height:1.25;font-family:'Proxima Nova';-inkscape-font-specification:'Proxima Nova';letter-spacing:0px;word-spacing:0px;stroke-width:0.264583"
       id="text855"
       aria-label="P">
      <path
         sodipodi:nodetypes="cccccccccccsccccccccsccccccsccsscsccsccccscccccscscccsccscsssccccsccccccccccccccccccccscccccccsccccscsccccccccssscscccccccccsccccsccccscsscccccsccsccc"
         id="path900"
         style="font-style:normal;font-variant:normal;font-weight:normal;font-stretch:normal;font-size:105.833px;font-family:'Cloister Black';-inkscape-font-specification:'Cloister Black, ';fill:#ffffff;fill-opacity:1;stroke-width:0.264583"
         d="m 81.809119,22.648474 h 0.846664 c 5.997203,4.303875 10.159968,7.761087 12.488294,10.371634 3.880542,4.303875 6.067753,9.101638 6.561643,14.393288 V 83.18495 L 85.936606,96.308242 c -1.05833,-0.423332 -2.610547,-0.952497 -4.656652,-1.587495 -0.493887,-0.141111 -1.269996,-0.388054 -2.328326,-0.740831 -0.493887,-0.211666 -1.269996,-0.423332 -2.328326,-0.634998 -0.776109,-0.282221 -1.975549,-0.564443 -3.598322,-0.846664 -0.141111,-0.07055 -0.423332,-0.141111 -0.846664,-0.211666 -0.423332,-0.141111 -0.705553,-0.211666 -0.846664,-0.211666 -0.141111,0 -0.740831,-0.105833 -1.799161,-0.317499 L 69.320825,109.6432 H 51.117549 V 89.958262 l -5.185817,0.317499 c -0.352777,0.141111 -0.987775,0.388054 -1.904994,0.740831 -0.352777,0.07055 -0.987775,0.211666 -1.904994,0.423332 -0.282221,0.07055 -0.740831,0.211666 -1.375829,0.423332 -0.634998,0.141111 -1.128885,0.282221 -1.481662,0.423332 -0.352777,0.141111 -1.305274,0.45861 -2.857491,0.952497 -1.269996,0.493887 -3.139712,1.164163 -5.609149,2.010827 V 95.038246 H 30.69178 v -0.105833 h -0.105833 v -0.634998 c 0,-0.07055 0.03528,-0.141111 0.105833,-0.211666 0.07055,-0.141111 0.105833,-0.246944 0.105833,-0.317499 0.282221,-0.846664 0.670276,-1.51694 1.164163,-2.010827 l 1.904994,-1.904994 c 0.282221,-0.282221 0.493887,-0.45861 0.634998,-0.529165 0.211666,-0.141111 0.493887,-0.352777 0.846664,-0.634998 0.352777,-0.282221 0.670276,-0.564443 0.952497,-0.846664 4.162765,-3.316101 9.101638,-5.785537 14.81662,-7.40831 v -0.952497 c 0,-4.656652 -1.799161,-9.172193 -5.397483,-13.546624 -3.316101,-4.092209 -7.267199,-7.090811 -11.853296,-8.995805 0.211666,-0.141111 0.493887,-0.352777 0.846664,-0.634998 l 0.952497,-0.634998 c 0.282221,-0.211666 0.811386,-0.59972 1.587495,-1.164163 l 3.492489,-2.539992 c 0.564443,-0.352777 1.446384,-0.952497 2.645825,-1.799161 0.564443,-0.423332 1.411107,-1.023052 2.539992,-1.799161 0.917219,-0.776109 1.799161,-1.411107 2.645825,-1.904994 0.846664,-0.776109 1.693328,-1.411107 2.539992,-1.904994 V 44.02674 c 0,-0.352777 0.03528,-0.564443 0.105833,-0.634998 V 41.91008 c 0,-0.141111 0.03528,-0.282221 0.105833,-0.423332 V 39.79342 c -0.07055,-0.07055 -0.105833,-0.211666 -0.105833,-0.423332 -0.07055,-2.328326 -0.811386,-4.69193 -2.222493,-7.090811 -1.411107,-2.398881 -3.527767,-3.6336 -6.34998,-3.704155 -2.539992,-0.07055 -5.115262,0.493887 -7.725809,1.693328 v -0.423332 c 0,-0.07055 0.03528,-0.176388 0.105833,-0.317499 V 29.21012 c 0,-0.07055 0.03528,-0.176388 0.105833,-0.317499 l 0.211666,-0.423332 c 0.07055,-0.141111 0.105833,-0.246944 0.105833,-0.317499 3.316101,-2.398881 6.491091,-3.986376 9.52497,-4.762485 0.352777,0 0.881942,-0.07055 1.587495,-0.211666 0.352777,0 0.634998,-0.03528 0.846664,-0.105833 h 0.846664 c 0.776109,0 2.046105,0.176388 3.809988,0.529165 2.187215,0.705553 4.056932,1.552217 5.609149,2.539992 3.033879,3.033879 4.938873,6.244147 5.714982,9.630803 L 66.463334,33.125941 66.675,23.071806 h 2.645825 v 8.360807 z m -15.345785,14.393288 -3.069157,2.434159 v 68.473949 h 3.069157 z m 9.842469,31.326568 c -0.846664,0.211666 -2.11666,0.705553 -3.809988,1.481662 -0.917219,0.423332 -1.975549,1.234718 -3.17499,2.434159 v 8.360807 c 7.337755,1.763883 14.181622,3.845266 20.531602,6.244147 v -13.75829 c -0.07055,-0.211666 -0.246944,-0.493887 -0.529165,-0.846664 -0.211666,-0.352777 -0.529165,-0.740831 -0.952497,-1.164163 l -0.105833,-0.105833 h -0.105833 v -0.105833 c -0.07055,0 -0.105833,-0.03528 -0.105833,-0.105833 -1.05833,-0.564443 -2.151938,-0.987775 -3.280823,-1.269996 -1.05833,-0.282221 -2.11666,-0.529165 -3.17499,-0.740831 -0.141111,0 -0.352777,-0.03528 -0.634998,-0.105833 h -0.740831 c -0.07055,0 -0.282221,-0.03528 -0.634998,-0.105833 h -0.634998 z m -6.984978,0 c 4.444986,-1.481662 7.655254,-2.222493 9.630803,-2.222493 0.493887,0 1.375829,0.07055 2.645825,0.211666 0.564443,0.141111 1.023052,0.211666 1.375829,0.211666 0.141111,0 0.352777,0.03528 0.634998,0.105833 0.352777,0.07055 0.59972,0.141111 0.740831,0.211666 0.564443,0.211666 1.446384,0.529165 2.645825,0.952497 0.282221,0.141111 0.740831,0.317499 1.375829,0.529165 l 0.634998,0.317499 c 0.282221,0.07055 0.493887,0.176388 0.634998,0.317499 v -14.81662 c -1.269996,1.128885 -3.457211,2.081382 -6.561646,2.857491 l -1.587495,0.317499 c -0.352777,0.07056 -0.917219,0.105833 -1.693328,0.105833 h -0.846664 c -0.141111,0 -0.317499,-0.03528 -0.529165,-0.105833 h -0.423332 c -0.211666,0 -0.776109,-0.105833 -1.693328,-0.317499 -1.622773,-0.352777 -3.951099,-1.234718 -6.984978,-2.645825 z m -18.414942,-19.896604 -7.619976,4.974151 7.619976,5.714982 z m 23.445285,-15.554319 -0.463447,-0.003 c -0.267061,-0.0064 -0.404131,-9.7e-5 -0.545242,-9.7e-5 h -0.211666 c -0.634998,0.07055 -1.375829,0.352777 -2.222493,0.846664 -0.776109,0.423332 -1.305274,0.952497 -1.587495,1.587495 v 14.604954 c 2.11666,3.245545 5.185817,4.868318 9.207471,4.868318 0.423332,0 1.693328,-0.176388 3.809988,-0.529165 0.423332,-0.141111 1.093608,-0.317499 2.010827,-0.529165 0.423332,-0.211666 1.05833,-0.493887 1.904994,-0.846664 0.846664,-0.423332 1.975549,-1.093608 3.386656,-2.010827 V 49.31839 c 0,-3.386656 -2.328326,-7.302477 -6.984978,-11.747463 -0.211666,-0.141111 -0.45861,-0.352777 -0.740831,-0.634998 L 81.597453,36.61843 c -0.141111,-0.141111 -0.282221,-0.211666 -0.423332,-0.211666 -0.352777,-0.282221 -0.811386,-0.634998 -1.375829,-1.05833 0,-0.07055 -0.105833,-0.141111 -0.317499,-0.211666 l -0.211666,-0.211666 c 0.07055,0 -0.211666,-0.105833 -0.846664,-0.317499 -0.211666,-0.211666 -0.388054,-0.352777 -0.529165,-0.423332 -0.141111,-0.07056 -0.388054,-0.176388 -0.740831,-0.317499 0,0 -0.137867,-0.113052 -0.317499,-0.211666 -0.141111,-0.07056 -0.199543,-0.06439 -0.317499,-0.105833 -0.06657,-0.02339 -0.258349,-0.08177 -0.712536,-0.221355 -0.227517,-0.08502 -0.617731,-0.246111 -1.298291,-0.413643 z" />
    </g>
  </g>
</svg>
